<svg xmlns="http://www.w3.org/2000/svg" xmlns:xlink="http://www.w3.org/1999/xlink" viewBox="0,0,256,256" width="48px" height="48px" fill-rule="nonzero"><g fill="#ffffff" fill-rule="nonzero" stroke="none" stroke-width="1" stroke-linecap="butt" stroke-linejoin="miter" stroke-miterlimit="10" stroke-dasharray="" stroke-dashoffset="0" font-family="none" font-weight="none" font-size="none" text-anchor="none" style="mix-blend-mode: normal"><g transform="scale(10.66667,10.66667)"><path d="M11.98828,0.99023c-0.41344,0.00647 -0.74367,0.34631 -0.73828,0.75977v1.40234c-4.03143,0.39729 -7.23242,3.69557 -7.23242,7.83008v3.09961c0,2.76661 -1.84766,4.63672 -1.84766,4.63672c-0.21495,0.21431 -0.27955,0.53703 -0.16366,0.81756c0.11589,0.28053 0.38943,0.46357 0.69296,0.46369h6.30078c0,1.64807 1.35193,3 3,3c1.64807,0 3,-1.35193 3,-3h6.30078c0.30353,-0.00012 0.57707,-0.18315 0.69296,-0.46369c0.11589,-0.28053 0.05129,-0.60326 -0.16366,-0.81756c0,0 -1.84766,-1.87011 -1.84766,-4.63672v-3.09961c0,-4.13451 -3.20099,-7.43279 -7.23242,-7.83008v-1.40234c0.00264,-0.20264 -0.07682,-0.39773 -0.22031,-0.54085c-0.14348,-0.14312 -0.33878,-0.22208 -0.54141,-0.21892zM12,4.5c3.58864,0 6.48242,2.8928 6.48242,6.48242v3.09961c0,2.02539 0.69695,3.43118 1.34961,4.41797h-15.66406c0.65266,-0.98679 1.34961,-2.39258 1.34961,-4.41797v-3.09961c0,-3.58962 2.89378,-6.48242 6.48242,-6.48242zM10.5,20h3c0,0.83793 -0.66207,1.5 -1.5,1.5c-0.83793,0 -1.5,-0.66207 -1.5,-1.5z"></path></g></g></svg>