<svg xmlns="http://www.w3.org/2000/svg" xmlns:xlink="http://www.w3.org/1999/xlink" viewBox="0,0,256,256" width="48px" height="48px" fill-rule="nonzero"><g fill="#ffffff" fill-rule="nonzero" stroke="none" stroke-width="1" stroke-linecap="butt" stroke-linejoin="miter" stroke-miterlimit="10" stroke-dasharray="" stroke-dashoffset="0" font-family="none" font-weight="none" font-size="none" text-anchor="none" style="mix-blend-mode: normal"><g transform="scale(10.66667,10.66667)"><path d="M12,2c-0.13138,0 -0.26286,0.03452 -0.38086,0.10352l-9.5,5.58789c-0.357,0.21 -0.47563,0.67034 -0.26563,1.02734c0.21,0.357 0.67034,0.47663 1.02734,0.26563l0.11914,-0.07031v11.33594c0,0.414 0.336,0.75 0.75,0.75h4.25v-9.25c0,-0.414 0.336,-0.75 0.75,-0.75h6.5c0.414,0 0.75,0.336 0.75,0.75v9.25h4.25c0.414,0 0.75,-0.336 0.75,-0.75v-11.33594l0.11914,0.07031c0.12,0.07 0.25086,0.10352 0.38086,0.10352c0.257,0 0.50648,-0.13114 0.64648,-0.36914c0.209,-0.356 0.09137,-0.81734 -0.26562,-1.02734l-9.5,-5.58789c-0.1175,-0.069 -0.24948,-0.10352 -0.38086,-0.10352zM9.5,12.5v8.5h5v-8.5z"></path></g></g></svg>