<svg xmlns="http://www.w3.org/2000/svg" xmlns:xlink="http://www.w3.org/1999/xlink" viewBox="0,0,256,256" width="48px" height="48px" fill-rule="nonzero"><g fill="#ffffff" fill-rule="nonzero" stroke="none" stroke-width="1" stroke-linecap="butt" stroke-linejoin="miter" stroke-miterlimit="10" stroke-dasharray="" stroke-dashoffset="0" font-family="none" font-weight="none" font-size="none" text-anchor="none" style="mix-blend-mode: normal"><g transform="scale(10.66667,10.66667)"><path d="M21.832,18.721c-0.019,-0.019 -1.849,-1.904 -1.849,-4.638v-3.1c0,-4.149 -3.182,-7.566 -7.233,-7.945v-1.288c0,-0.414 -0.336,-0.75 -0.75,-0.75c-0.414,0 -0.75,0.336 -0.75,0.75v1.288c-4.051,0.38 -7.233,3.797 -7.233,7.945v3.1c0,2.734 -1.83,4.619 -1.847,4.636c-0.214,0.214 -0.279,0.537 -0.163,0.817c0.116,0.28 0.39,0.464 0.693,0.464h6.3c0,1.654 1.346,3 3,3c1.654,0 3,-1.346 3,-3h6.3c0.302,0 0.575,-0.183 0.691,-0.461c0.116,-0.28 0.053,-0.602 -0.159,-0.818z"></path></g></g></svg>